<?xml version="1.0" encoding="UTF-8" standalone="no"?>
<svg
   width="31"
   height="18"
   viewBox="0 0 31 18"
   fill="none"
   version="1.1"
   id="svg12"
   sodipodi:docname="depass-stateful-container-right.svg"
   inkscape:version="1.1 (c68e22c387, 2021-05-23)"
   xmlns:inkscape="http://www.inkscape.org/namespaces/inkscape"
   xmlns:sodipodi="http://sodipodi.sourceforge.net/DTD/sodipodi-0.dtd"
   xmlns="http://www.w3.org/2000/svg"
   xmlns:svg="http://www.w3.org/2000/svg">
  <defs
     id="defs16" />
  <sodipodi:namedview
     id="namedview14"
     pagecolor="#ffffff"
     bordercolor="#666666"
     borderopacity="1.0"
     inkscape:pageshadow="2"
     inkscape:pageopacity="0.0"
     inkscape:pagecheckerboard="0"
     showgrid="false"
     inkscape:zoom="22.627417"
     inkscape:cx="13.876971"
     inkscape:cy="7.8002717"
     inkscape:window-width="1920"
     inkscape:window-height="1001"
     inkscape:window-x="-9"
     inkscape:window-y="-9"
     inkscape:window-maximized="1"
     inkscape:current-layer="svg12" />
  <rect
     width="31"
     height="18"
     rx="9"
     fill="#EDEDED"
     id="rect2" />
  <rect
     x="0.5"
     y="0.5"
     width="30"
     height="17"
     rx="8.5"
     stroke="black"
     stroke-opacity="0.13"
     id="rect4" />
  <path
     d="M22 17C26.4183 17 30 13.4183 30 9C30 4.58172 26.4183 1 22 1C17.5817 1 14 4.58172 14 9C14 13.4183 17.5817 17 22 17Z"
     fill="white"
     id="path6" />
  <path
     d="m 17.326036,12.473728 c -0.0076,-4.691026 -0.0024,-5.4966583 0.03395,-5.5221257 0.0116,-0.00811 0.04536,-0.1074017 0.07497,-0.2206397 0.402313,-1.5382472 1.749468,-2.7179334 3.445623,-3.0171895 0.455812,-0.080427 1.145849,-0.087765 1.526435,-0.016214 0.607712,0.1142284 1.184315,0.3572304 1.649437,0.6951559 0.133585,0.097054 0.250575,0.1764658 0.259978,0.1764658 0.0094,0 0.02409,-0.7887596 0.0061,-1.7591975 l -0.02762,-1.4885092 c 1.285003,0.4235999 1.643678,0.7169224 2.176799,1.0291325 0,0 2.01e-4,9.2823924 -0.0057,9.3026224 -0.222747,0.757132 -0.492105,1.234088 -0.903619,1.696002 -0.637632,0.715814 -1.464459,1.190313 -2.441119,1.400938 -0.403583,0.08703 -1.211745,0.107817 -1.614946,0.04155 -0.595721,-0.09793 -1.250035,-0.371336 -1.701559,-0.711006 -0.11575,-0.08708 -0.216198,-0.158319 -0.223223,-0.158319 -0.007,0 -0.01277,0.701508 -0.01277,1.558847 v 1.15005 c -1.221218,-0.434143 -1.489921,-0.645815 -2.243167,-1.106829 z m 5.272203,0.361767 c 0.901385,-0.234383 1.541747,-0.914923 1.63477,-1.737416 0.01093,-0.09672 0.01332,-0.175854 0.0053,-0.175854 -0.0081,0 -0.105706,0.06155 -0.217041,0.136763 -0.111333,0.07522 -0.348019,0.206902 -0.52597,0.292631 -0.57835,0.27862 -1.108569,0.393846 -1.813281,0.394036 -0.662863,2.35e-4 -1.319313,-0.134912 -1.87526,-0.38591 -0.10366,-0.0468 -0.193033,-0.08053 -0.198613,-0.07495 -0.0056,0.0056 0.01575,0.08544 0.04743,0.17748 0.256311,0.744963 0.883341,1.254071 1.746794,1.418332 0.307076,0.05841 0.881088,0.03676 1.195836,-0.0451 z m 0.05925,-3.0988175 C 23.022463,9.6344996 23.50266,9.4001589 23.532879,9.3094681 23.548819,9.2615801 23.148103,9.012077 22.901301,8.9162451 22.572613,8.7886183 22.300298,8.7403428 21.90701,8.7399985 c -0.405405,-2.939e-4 -0.720624,0.056184 -1.030683,0.1848662 -0.259303,0.1076156 -0.549008,0.2869078 -0.535432,0.3313597 0.01859,0.060924 0.38552,0.2833815 0.610681,0.3702376 0.382014,0.1473773 0.58158,0.1778607 1.087791,0.1661658 0.290618,-0.00673 0.514697,-0.026987 0.618103,-0.055953 z M 19.90697,7.4858214 c 0.426217,-0.284266 0.892007,-0.4768256 1.450567,-0.5996981 0.233537,-0.051371 0.382727,-0.062665 0.828904,-0.062732 0.479241,-5.89e-5 0.589304,0.00942 0.922934,0.079678 0.361928,0.076211 0.81555,0.2255489 1.057933,0.3482492 0.06223,0.031522 0.120177,0.050258 0.128777,0.041658 0.02943,-0.029436 -0.05418,-0.2972659 -0.160253,-0.5132511 C 24.000275,6.5037287 23.668708,6.1466644 23.382027,5.9679781 23.139517,5.8168309 22.857537,5.7041689 22.557513,5.638553 22.269064,5.57547 21.6794,5.576907 21.377647,5.641463 c -0.990313,0.2117466 -1.69467,0.9476918 -1.771427,1.8509191 -0.01441,0.1696159 -0.01047,0.1983243 0.02414,0.176473 0.02274,-0.01434 0.147259,-0.096717 0.276674,-0.1830328 z"
     fill="#61dafb"
     fill-rule="evenodd"
     stroke-opacity="0"
     id="path833"
     style="fill:#198cff;fill-opacity:1;stroke-width:0.0593642"
     sodipodi:nodetypes="cccccsssccccccssscccscscscssccssccscsccccccscccsccscsccc" />
</svg>
